<svg xmlns="http://www.w3.org/2000/svg" xmlns:xlink="http://www.w3.org/1999/xlink" width="2560" zoomAndPan="magnify" viewBox="0 0 1920 1079.999946" height="1440" preserveAspectRatio="xMidYMid meet" version="1.0"><defs><g/><clipPath id="8e135ba8d3"><path d="M 239 0.519531 L 1730.917969 0.519531 L 1730.917969 1022.199219 L 239 1022.199219 Z M 239 0.519531 " clip-rule="nonzero"/></clipPath><clipPath id="f76d766ac5"><rect x="0" width="1492" y="0" height="1023"/></clipPath><clipPath id="6d37511af5"><path d="M 1 101.402344 L 566.957031 101.402344 L 566.957031 597.628906 L 1 597.628906 Z M 1 101.402344 " clip-rule="nonzero"/></clipPath><clipPath id="9df11f535c"><rect x="0" width="1731" y="0" height="1023"/></clipPath></defs><g transform="matrix(1, 0, 0, 1, 107, 17)"><g clip-path="url(#9df11f535c)"><g clip-path="url(#8e135ba8d3)"><g transform="matrix(1, 0, 0, 1, 239, 0)"><g clip-path="url(#f76d766ac5)"><g fill="#152705" fill-opacity="1"><g transform="translate(12.110127, 589.61754)"><g><path d="M 27.65625 160.484375 C 36.46875 160.484375 44.976562 156.675781 53.1875 149.0625 C 61.40625 141.457031 68.820312 132.742188 75.4375 122.921875 C 82.050781 113.109375 86.960938 104.796875 90.171875 97.984375 C 101.785156 74.734375 109.394531 55.09375 113 39.0625 C 116.613281 23.039062 119.820312 12.625 122.625 7.8125 C 120.21875 8.21875 116.609375 10.320312 111.796875 14.125 C 106.992188 17.9375 102.285156 21.84375 97.671875 25.84375 C 93.066406 29.851562 89.765625 33.0625 87.765625 35.46875 C 80.953125 42.28125 73.132812 50.492188 64.3125 60.109375 C 55.5 69.722656 47.082031 80.140625 39.0625 91.359375 C 31.050781 102.585938 24.941406 113.910156 20.734375 125.328125 C 16.523438 136.742188 15.625 147.863281 18.03125 158.6875 C 20.4375 159.09375 22.039062 159.492188 22.84375 159.890625 C 23.644531 160.285156 25.25 160.484375 27.65625 160.484375 Z M 320.984375 -128.640625 C 322.585938 -134.242188 323.789062 -140.453125 324.59375 -147.265625 C 325.394531 -154.078125 326.195312 -160.488281 327 -166.5 C 329.40625 -183.726562 332.507812 -203.363281 336.3125 -225.40625 C 340.113281 -247.445312 344.21875 -269.488281 348.625 -291.53125 C 353.039062 -313.570312 357.050781 -333.207031 360.65625 -350.4375 C 361.851562 -356.050781 363.253906 -363.363281 364.859375 -372.375 C 366.460938 -381.394531 367.863281 -391.113281 369.0625 -401.53125 C 370.269531 -411.945312 370.671875 -421.660156 370.265625 -430.671875 C 369.867188 -439.691406 368.066406 -446.804688 364.859375 -452.015625 C 356.441406 -451.617188 347.425781 -447.410156 337.8125 -439.390625 C 328.195312 -431.378906 318.476562 -421.265625 308.65625 -409.046875 C 298.84375 -396.828125 289.628906 -384.003906 281.015625 -370.578125 C 272.398438 -357.148438 264.6875 -344.625 257.875 -333 C 251.0625 -321.382812 246.050781 -312.171875 242.84375 -305.359375 L 218.203125 -252.453125 C 212.585938 -240.035156 206.773438 -225.3125 200.765625 -208.28125 C 194.753906 -191.25 189.144531 -174.113281 183.9375 -156.875 C 178.726562 -139.644531 174.316406 -124.21875 170.703125 -110.59375 C 169.910156 -106.1875 168.410156 -99.875 166.203125 -91.65625 C 163.992188 -83.445312 161.890625 -75.332031 159.890625 -67.3125 C 157.890625 -59.300781 156.6875 -53.296875 156.28125 -49.296875 C 159.882812 -50.492188 163.390625 -52.296875 166.796875 -54.703125 C 170.203125 -57.109375 173.507812 -59.3125 176.71875 -61.3125 L 235.625 -93.765625 C 244.84375 -98.171875 255.0625 -102.976562 266.28125 -108.1875 C 277.5 -113.40625 288.117188 -117.816406 298.140625 -121.421875 C 302.148438 -122.222656 306.257812 -123.222656 310.46875 -124.421875 C 314.675781 -125.628906 318.179688 -127.035156 320.984375 -128.640625 Z M 24.046875 180.921875 C 14.828125 180.921875 7.507812 177.414062 2.09375 170.40625 C -3.3125 163.394531 -6.015625 155.082031 -6.015625 145.46875 C -5.609375 132.238281 -1.597656 118.3125 6.015625 103.6875 C 13.628906 89.0625 23.144531 74.734375 34.5625 60.703125 C 45.976562 46.679688 57.796875 33.660156 70.015625 21.640625 C 82.242188 9.617188 93.164062 -0.398438 102.78125 -8.421875 C 111.195312 -15.234375 117.410156 -20.039062 121.421875 -22.84375 C 125.429688 -25.644531 128.234375 -28.347656 129.828125 -30.953125 C 131.429688 -33.554688 132.835938 -37.664062 134.046875 -43.28125 C 140.859375 -74.132812 148.972656 -106.289062 158.390625 -139.75 C 167.804688 -173.21875 178.828125 -206.378906 191.453125 -239.234375 C 204.078125 -272.097656 218.503906 -303.554688 234.734375 -333.609375 C 250.960938 -363.660156 268.894531 -390.707031 288.53125 -414.75 C 292.9375 -420.363281 299.242188 -427.675781 307.453125 -436.6875 C 315.671875 -445.707031 324.6875 -453.722656 334.5 -460.734375 C 344.320312 -467.742188 353.84375 -471.25 363.0625 -471.25 C 373.476562 -471.25 380.488281 -467.84375 384.09375 -461.03125 C 387.707031 -454.226562 389.710938 -446.414062 390.109375 -437.59375 C 390.515625 -428.78125 390.71875 -421.164062 390.71875 -414.75 C 390.71875 -407.132812 389.613281 -395.613281 387.40625 -380.1875 C 385.195312 -364.757812 382.488281 -347.425781 379.28125 -328.1875 C 376.082031 -308.957031 372.578125 -289.320312 368.765625 -269.28125 C 364.960938 -249.25 361.554688 -230.71875 358.546875 -213.6875 C 355.546875 -196.65625 353.242188 -182.726562 351.640625 -171.90625 C 350.835938 -165.5 349.9375 -159.691406 348.9375 -154.484375 C 347.9375 -149.273438 347.4375 -143.265625 347.4375 -136.453125 C 354.25 -136.453125 360.359375 -137.050781 365.765625 -138.25 C 371.171875 -139.457031 377.679688 -140.0625 385.296875 -140.0625 C 392.910156 -140.0625 397.921875 -138.253906 400.328125 -134.640625 C 402.734375 -131.035156 403.132812 -127.328125 401.53125 -123.515625 C 399.925781 -119.710938 396.921875 -117.8125 392.515625 -117.8125 C 387.304688 -117.8125 385.203125 -118.3125 386.203125 -119.3125 C 387.203125 -120.3125 386.097656 -120.8125 382.890625 -120.8125 C 381.296875 -120.8125 378.289062 -120.613281 373.875 -120.21875 C 369.46875 -119.820312 363.257812 -118.820312 355.25 -117.21875 C 349.632812 -116.007812 346.222656 -114.800781 345.015625 -113.59375 C 343.816406 -112.394531 342.816406 -108.59375 342.015625 -102.1875 L 313.171875 209.78125 C 313.171875 218.59375 312.867188 227.304688 312.265625 235.921875 C 311.660156 244.546875 311.359375 254.066406 311.359375 264.484375 C 311.359375 276.503906 311.757812 286.21875 312.5625 293.625 C 313.363281 301.039062 313.265625 306.550781 312.265625 310.15625 C 311.265625 313.769531 307.757812 315.578125 301.75 315.578125 C 297.34375 315.578125 294.035156 311.96875 291.828125 304.75 C 289.628906 297.539062 288.128906 288.828125 287.328125 278.609375 C 286.523438 268.390625 286.222656 258.570312 286.421875 249.15625 C 286.617188 239.738281 286.921875 232.828125 287.328125 228.421875 C 287.328125 223.609375 287.625 220 288.21875 217.59375 C 288.820312 215.1875 289.125 211.378906 289.125 206.171875 C 289.125 198.960938 289.523438 189.847656 290.328125 178.828125 C 291.128906 167.804688 291.929688 156.382812 292.734375 144.5625 C 293.535156 132.738281 294.132812 122.21875 294.53125 113 L 313.171875 -62.515625 C 313.972656 -70.523438 314.875 -77.734375 315.875 -84.140625 C 316.875 -90.554688 317.375 -97.972656 317.375 -106.390625 C 311.769531 -103.585938 304.359375 -100.679688 295.140625 -97.671875 C 285.921875 -94.671875 275.898438 -90.363281 265.078125 -84.75 C 253.054688 -78.738281 243.335938 -73.929688 235.921875 -70.328125 C 228.515625 -66.722656 222.003906 -63.316406 216.390625 -60.109375 C 210.785156 -56.898438 204.675781 -53.191406 198.0625 -48.984375 C 191.445312 -44.773438 182.726562 -39.265625 171.90625 -32.453125 C 171.101562 -32.054688 169 -30.753906 165.59375 -28.546875 C 162.1875 -26.347656 158.976562 -24.046875 155.96875 -21.640625 C 152.96875 -19.234375 151.269531 -17.832031 150.875 -17.4375 C 149.675781 -16.226562 147.769531 -10.613281 145.15625 -0.59375 C 142.550781 9.414062 139.046875 21.9375 134.640625 36.96875 C 130.234375 52 124.820312 67.828125 118.40625 84.453125 C 112 101.085938 104.285156 116.71875 95.265625 131.34375 C 86.253906 145.96875 75.835938 157.882812 64.015625 167.09375 C 52.191406 176.3125 38.867188 180.921875 24.046875 180.921875 Z M 24.046875 180.921875 "/></g></g></g><g fill="#152705" fill-opacity="1"><g transform="translate(384.733074, 589.61754)"><g><path d="M 31.859375 -48.6875 C 23.441406 -48.6875 17.53125 -52.894531 14.125 -61.3125 C 10.71875 -69.726562 9.210938 -80.144531 9.609375 -92.5625 C 10.015625 -104.988281 11.617188 -117.410156 14.421875 -129.828125 C 17.234375 -142.253906 20.738281 -152.675781 24.9375 -161.09375 C 29.144531 -169.507812 33.457031 -173.71875 37.875 -173.71875 C 45.488281 -173.71875 49.992188 -172.015625 51.390625 -168.609375 C 52.796875 -165.203125 52.492188 -159.890625 50.484375 -152.671875 C 48.484375 -145.460938 46.179688 -136.347656 43.578125 -125.328125 C 40.972656 -114.304688 39.671875 -101.179688 39.671875 -85.953125 C 40.472656 -86.753906 41.070312 -87.351562 41.46875 -87.75 C 41.875 -88.15625 42.273438 -88.5625 42.671875 -88.96875 L 70.921875 -136.453125 C 73.328125 -140.453125 76.632812 -145.757812 80.84375 -152.375 C 85.050781 -158.988281 89.660156 -165 94.671875 -170.40625 C 99.679688 -175.820312 104.59375 -178.53125 109.40625 -178.53125 C 118.613281 -178.53125 124.617188 -173.820312 127.421875 -164.40625 C 130.234375 -154.988281 131.640625 -145.46875 131.640625 -135.84375 C 136.046875 -136.644531 141.453125 -140.351562 147.859375 -146.96875 C 154.273438 -153.582031 160.085938 -159.289062 165.296875 -164.09375 C 168.109375 -167.300781 170.613281 -170.109375 172.8125 -172.515625 C 175.019531 -174.921875 177.722656 -176.925781 180.921875 -178.53125 C 184.929688 -180.53125 188.539062 -181.53125 191.75 -181.53125 C 195.757812 -181.53125 199.164062 -179.925781 201.96875 -176.71875 C 204.769531 -173.507812 206.367188 -167.597656 206.765625 -158.984375 C 207.171875 -150.367188 206.972656 -140.453125 206.171875 -129.234375 C 205.367188 -118.015625 204.46875 -106.796875 203.46875 -95.578125 C 202.46875 -84.359375 201.96875 -74.539062 201.96875 -66.125 C 201.96875 -47.6875 203.46875 -34.757812 206.46875 -27.34375 C 209.476562 -19.9375 213.585938 -16.234375 218.796875 -16.234375 C 224.804688 -16.234375 231.519531 -20.238281 238.9375 -28.25 C 246.351562 -36.257812 253.765625 -45.675781 261.171875 -56.5 C 268.585938 -67.320312 274.898438 -77.140625 280.109375 -85.953125 C 282.910156 -90.359375 285.613281 -94.765625 288.21875 -99.171875 C 290.820312 -103.585938 295.332031 -105.796875 301.75 -105.796875 C 302.945312 -105.796875 304.25 -104.992188 305.65625 -103.390625 C 307.0625 -101.785156 307.765625 -99.984375 307.765625 -97.984375 C 307.765625 -95.578125 306.5625 -92.164062 304.15625 -87.75 C 301.75 -83.34375 299.242188 -79.035156 296.640625 -74.828125 C 294.035156 -70.628906 291.929688 -67.328125 290.328125 -64.921875 C 288.722656 -62.109375 287.316406 -59.703125 286.109375 -57.703125 C 284.910156 -55.703125 283.3125 -53.097656 281.3125 -49.890625 C 279.707031 -47.484375 278.101562 -45.378906 276.5 -43.578125 C 274.894531 -41.773438 273.09375 -39.269531 271.09375 -36.0625 C 263.476562 -24.84375 254.359375 -15.023438 243.734375 -6.609375 C 233.117188 1.804688 222.800781 6.015625 212.78125 6.015625 C 207.175781 6.015625 201.769531 4.207031 196.5625 0.59375 C 191.351562 -3.007812 187.144531 -9.21875 183.9375 -18.03125 C 178.320312 -32.851562 175.613281 -48.476562 175.8125 -64.90625 C 176.019531 -81.34375 177.320312 -97.375 179.71875 -113 C 182.125 -128.632812 183.328125 -142.257812 183.328125 -153.875 C 179.328125 -151.070312 174.421875 -146.460938 168.609375 -140.046875 C 162.796875 -133.640625 156.882812 -127.726562 150.875 -122.3125 C 144.863281 -116.90625 139.050781 -114.203125 133.4375 -114.203125 C 124.226562 -114.203125 117.921875 -118.609375 114.515625 -127.421875 C 111.109375 -136.242188 109.40625 -145.0625 109.40625 -153.875 C 102.59375 -149.46875 96.078125 -141.65625 89.859375 -130.4375 C 83.648438 -119.21875 77.4375 -107.394531 71.21875 -94.96875 C 65.007812 -82.550781 58.800781 -71.832031 52.59375 -62.8125 C 46.382812 -53.800781 39.875 -49.09375 33.0625 -48.6875 Z M 31.859375 -48.6875 "/></g></g></g><g fill="#152705" fill-opacity="1"><g transform="translate(665.402278, 589.61754)"><g><path d="M 41.46875 37.265625 C 48.28125 33.660156 55.191406 28.25 62.203125 21.03125 C 69.222656 13.820312 75.4375 6.210938 80.84375 -1.796875 C 86.257812 -9.816406 89.765625 -16.832031 91.359375 -22.84375 L 61.3125 3 C 56.5 7.414062 52.988281 10.722656 50.78125 12.921875 C 48.582031 15.128906 46.984375 17.832031 45.984375 21.03125 C 44.984375 24.238281 43.476562 29.648438 41.46875 37.265625 Z M 56.5 -15.625 C 58.507812 -16.832031 59.710938 -17.734375 60.109375 -18.328125 C 60.503906 -18.929688 61.503906 -20.035156 63.109375 -21.640625 C 65.515625 -23.242188 67.722656 -24.847656 69.734375 -26.453125 C 78.546875 -34.066406 85.253906 -39.675781 89.859375 -43.28125 C 94.472656 -46.882812 97.679688 -49.890625 99.484375 -52.296875 C 101.285156 -54.703125 102.285156 -57.503906 102.484375 -60.703125 C 102.679688 -63.910156 102.78125 -68.921875 102.78125 -75.734375 C 102.78125 -84.953125 100.976562 -89.5625 97.375 -89.5625 C 94.570312 -89.5625 90.96875 -86.851562 86.5625 -81.4375 C 82.15625 -76.03125 77.742188 -69.21875 73.328125 -61 C 68.921875 -52.789062 65.113281 -44.578125 61.90625 -36.359375 C 58.707031 -28.148438 56.90625 -21.238281 56.5 -15.625 Z M 0 -2.40625 C 0 -7.21875 0.398438 -16.535156 1.203125 -30.359375 C 2.003906 -44.179688 3.304688 -60.007812 5.109375 -77.84375 C 6.910156 -95.675781 9.210938 -112.90625 12.015625 -129.53125 C 14.828125 -146.164062 18.234375 -159.992188 22.234375 -171.015625 C 26.242188 -182.035156 30.851562 -187.546875 36.0625 -187.546875 C 38.863281 -187.546875 41.671875 -186.742188 44.484375 -185.140625 C 45.679688 -180.734375 46.28125 -177.523438 46.28125 -175.515625 C 46.28125 -173.515625 45.976562 -171.3125 45.375 -168.90625 C 44.78125 -166.5 43.679688 -161.890625 42.078125 -155.078125 C 36.460938 -126.628906 32.351562 -98.679688 29.75 -71.234375 C 27.144531 -43.785156 25.84375 -15.03125 25.84375 15.03125 C 28.65625 13.019531 31.5625 7.507812 34.5625 -1.5 C 37.570312 -10.519531 41.078125 -20.9375 45.078125 -32.75 C 49.085938 -44.570312 53.492188 -56.296875 58.296875 -67.921875 C 63.109375 -79.546875 68.71875 -89.164062 75.125 -96.78125 C 81.539062 -104.394531 88.957031 -108.203125 97.375 -108.203125 C 106.1875 -108.203125 112.695312 -104.09375 116.90625 -95.875 C 121.113281 -87.65625 123.21875 -79.335938 123.21875 -70.921875 C 125.625 -71.722656 128.429688 -73.226562 131.640625 -75.4375 C 134.847656 -77.644531 137.65625 -79.546875 140.0625 -81.140625 C 144.0625 -83.953125 148.765625 -87.359375 154.171875 -91.359375 C 159.585938 -95.367188 164.898438 -98.976562 170.109375 -102.1875 C 175.316406 -105.394531 179.523438 -107 182.734375 -107 C 186.335938 -107 188.140625 -104.59375 188.140625 -99.78125 C 188.140625 -97.78125 185.132812 -94.375 179.125 -89.5625 C 173.113281 -84.75 166.097656 -79.535156 158.078125 -73.921875 C 150.066406 -68.316406 142.554688 -63.109375 135.546875 -58.296875 C 128.535156 -53.492188 124.023438 -49.890625 122.015625 -47.484375 C 120.816406 -45.878906 118.914062 -41.367188 116.3125 -33.953125 C 113.707031 -26.546875 110.097656 -17.734375 105.484375 -7.515625 C 100.878906 2.703125 94.671875 12.921875 86.859375 23.140625 C 79.046875 33.359375 68.925781 42.078125 56.5 49.296875 C 54.09375 50.492188 51.382812 51.691406 48.375 52.890625 C 45.375 54.097656 42.875 55.503906 40.875 57.109375 C 38.070312 58.710938 35.765625 63.519531 33.953125 71.53125 C 32.148438 79.539062 30.847656 87.753906 30.046875 96.171875 C 29.253906 104.585938 28.859375 110.597656 28.859375 114.203125 C 28.859375 121.421875 29.359375 129.335938 30.359375 137.953125 C 31.359375 146.566406 31.65625 153.878906 31.25 159.890625 C 30.851562 165.898438 28.453125 168.90625 24.046875 168.90625 C 19.640625 168.90625 17.035156 167.5 16.234375 164.6875 C 15.429688 161.882812 14.628906 157.878906 13.828125 152.671875 C 10.222656 127.429688 7.015625 101.6875 4.203125 75.4375 C 1.398438 49.1875 0 23.238281 0 -2.40625 Z M 0 -2.40625 "/></g></g></g><g fill="#152705" fill-opacity="1"><g transform="translate(833.683647, 589.61754)"><g><path d="M 1.203125 -46.28125 C 1.203125 -66.320312 2.40625 -87.960938 4.8125 -111.203125 C 7.21875 -134.441406 10.421875 -157.484375 14.421875 -180.328125 C 18.429688 -203.171875 22.84375 -223.804688 27.65625 -242.234375 C 29.65625 -248.242188 31.65625 -254.957031 33.65625 -262.375 C 35.664062 -269.789062 38.269531 -276.203125 41.46875 -281.609375 C 44.675781 -287.023438 48.882812 -289.734375 54.09375 -289.734375 C 58.90625 -289.734375 61.910156 -287.925781 63.109375 -284.3125 C 64.316406 -280.707031 64.414062 -276.398438 63.40625 -271.390625 C 62.40625 -266.378906 61.101562 -261.769531 59.5 -257.5625 C 57.90625 -253.351562 56.90625 -250.453125 56.5 -248.859375 C 53.289062 -236.828125 49.582031 -220.492188 45.375 -199.859375 C 41.175781 -179.222656 37.171875 -156.679688 33.359375 -132.234375 C 29.554688 -107.796875 26.648438 -83.550781 24.640625 -59.5 C 22.640625 -35.457031 22.238281 -13.722656 23.4375 5.703125 C 24.644531 25.140625 27.851562 40.066406 33.0625 50.484375 C 39.875 46.878906 45.484375 41.46875 49.890625 34.25 C 54.296875 27.039062 58.101562 20.03125 61.3125 13.21875 C 70.53125 -4.40625 79.546875 -23.035156 88.359375 -42.671875 C 97.171875 -62.304688 106.390625 -80.742188 116.015625 -97.984375 C 119.210938 -104.390625 122.617188 -107.59375 126.234375 -107.59375 C 127.835938 -107.59375 129.140625 -106.890625 130.140625 -105.484375 C 131.140625 -104.085938 131.640625 -102.585938 131.640625 -100.984375 C 131.640625 -99.785156 130.035156 -95.976562 126.828125 -89.5625 C 123.617188 -83.15625 120.3125 -76.546875 116.90625 -69.734375 C 113.5 -62.921875 111.195312 -58.507812 110 -56.5 C 105.988281 -48.082031 101.476562 -38.265625 96.46875 -27.046875 C 91.46875 -15.828125 86.5625 -4.8125 81.75 6 C 76.9375 16.820312 72.328125 26.039062 67.921875 33.65625 C 65.921875 36.863281 63.21875 41.171875 59.8125 46.578125 C 56.40625 51.992188 52.695312 56.703125 48.6875 60.703125 C 44.675781 64.710938 40.066406 66.71875 34.859375 66.71875 C 26.847656 66.71875 20.535156 62.707031 15.921875 54.6875 C 11.316406 46.675781 8.007812 36.660156 6 24.640625 C 4 12.617188 2.695312 0.195312 2.09375 -12.625 C 1.5 -25.445312 1.203125 -36.664062 1.203125 -46.28125 Z M 1.203125 -46.28125 "/></g></g></g><g fill="#152705" fill-opacity="1"><g transform="translate(939.460473, 589.61754)"><g><path d="M 49.890625 2.40625 C 41.878906 2.40625 34.765625 -0.195312 28.546875 -5.40625 C 22.335938 -10.613281 17.628906 -16.023438 14.421875 -21.640625 C 7.210938 -35.265625 3.101562 -51.394531 2.09375 -70.03125 C 1.09375 -88.664062 2.195312 -105.59375 5.40625 -120.8125 C 6.207031 -125.226562 7.304688 -130.539062 8.703125 -136.75 C 10.109375 -142.957031 12.210938 -148.460938 15.015625 -153.265625 C 17.828125 -158.078125 21.238281 -160.484375 25.25 -160.484375 C 34.46875 -160.484375 38.972656 -157.378906 38.765625 -151.171875 C 38.566406 -144.960938 36.863281 -135.34375 33.65625 -122.3125 C 30.457031 -109.289062 28.859375 -92.5625 28.859375 -72.125 C 28.859375 -66.113281 29.65625 -58.898438 31.25 -50.484375 C 32.851562 -42.078125 35.359375 -34.664062 38.765625 -28.25 C 42.171875 -21.84375 46.476562 -18.640625 51.6875 -18.640625 C 58.101562 -18.640625 65.414062 -21.441406 73.625 -27.046875 C 81.84375 -32.660156 89.457031 -38.972656 96.46875 -45.984375 C 103.488281 -52.992188 108.398438 -58.300781 111.203125 -61.90625 C 112.003906 -62.707031 114.207031 -65.410156 117.8125 -70.015625 C 121.414062 -74.628906 125.722656 -79.84375 130.734375 -85.65625 C 135.742188 -91.46875 140.648438 -96.578125 145.453125 -100.984375 C 150.265625 -105.390625 154.078125 -107.59375 156.890625 -107.59375 C 159.691406 -107.59375 161.09375 -105.1875 161.09375 -100.375 C 161.09375 -97.570312 159.1875 -93.265625 155.375 -87.453125 C 151.570312 -81.648438 147.066406 -75.539062 141.859375 -69.125 C 136.648438 -62.71875 131.539062 -56.707031 126.53125 -51.09375 C 121.519531 -45.476562 117.8125 -41.472656 115.40625 -39.078125 C 110.601562 -34.265625 104.894531 -28.550781 98.28125 -21.9375 C 91.664062 -15.320312 84.347656 -9.609375 76.328125 -4.796875 C 68.316406 0.00390625 59.503906 2.40625 49.890625 2.40625 Z M 30.65625 -236.234375 C 30.65625 -243.046875 32.457031 -248.953125 36.0625 -253.953125 C 39.664062 -258.960938 43.675781 -261.46875 48.09375 -261.46875 C 52.894531 -261.46875 56.898438 -258.460938 60.109375 -252.453125 C 65.722656 -241.234375 66.425781 -232.519531 62.21875 -226.3125 C 58.007812 -220.101562 52.898438 -217 46.890625 -217 C 42.878906 -217 39.171875 -218.597656 35.765625 -221.796875 C 32.359375 -225.003906 30.65625 -229.816406 30.65625 -236.234375 Z M 30.65625 -236.234375 "/></g></g></g><g fill="#152705" fill-opacity="1"><g transform="translate(1076.489524, 589.61754)"><g><path d="M 18.640625 93.765625 C 18.640625 98.171875 18.9375 104.984375 19.53125 114.203125 C 20.132812 123.421875 21.335938 133.140625 23.140625 143.359375 C 24.941406 153.578125 27.546875 162.492188 30.953125 170.109375 C 34.359375 177.722656 38.664062 182.128906 43.875 183.328125 C 48.28125 180.523438 52.585938 174.816406 56.796875 166.203125 C 61.003906 157.585938 64.609375 148.269531 67.609375 138.25 C 70.617188 128.226562 72.125 119.613281 72.125 112.40625 L 72.125 89.5625 C 72.125 80.34375 69.316406 71.222656 63.703125 62.203125 C 58.097656 53.191406 51.1875 45.476562 42.96875 39.0625 C 34.757812 32.65625 26.648438 29.453125 18.640625 29.453125 Z M -77.546875 31.859375 C -77.546875 26.648438 -74.035156 22.34375 -67.015625 18.9375 C -60.003906 15.53125 -52.09375 12.820312 -43.28125 10.8125 C -34.46875 8.8125 -27.851562 7.613281 -23.4375 7.21875 C -17.03125 6.414062 -13.125 5.910156 -11.71875 5.703125 C -10.320312 5.503906 -9.421875 2 -9.015625 -4.8125 C -8.617188 -14.425781 -7.113281 -26.546875 -4.5 -41.171875 C -1.894531 -55.796875 1.40625 -71.421875 5.40625 -88.046875 C 9.414062 -104.679688 13.722656 -121.113281 18.328125 -137.34375 C 22.941406 -153.570312 27.75 -168.195312 32.75 -181.21875 C 37.757812 -194.25 42.671875 -203.972656 47.484375 -210.390625 C 52.691406 -216.796875 58.101562 -220 63.71875 -220 C 66.519531 -220 68.921875 -218.894531 70.921875 -216.6875 C 72.929688 -214.488281 73.9375 -210.785156 73.9375 -205.578125 C 73.9375 -198.359375 73.535156 -194.046875 72.734375 -192.640625 C 71.929688 -191.242188 70.726562 -190.34375 69.125 -189.9375 C 67.519531 -189.539062 65.515625 -187.640625 63.109375 -184.234375 C 60.710938 -180.828125 57.910156 -173.3125 54.703125 -161.6875 C 50.691406 -147.664062 47.484375 -136.347656 45.078125 -127.734375 C 42.671875 -119.117188 40.363281 -110.398438 38.15625 -101.578125 C 35.957031 -92.765625 33.257812 -80.546875 30.0625 -64.921875 C 28.851562 -58.503906 27.546875 -50.085938 26.140625 -39.671875 C 24.742188 -29.253906 23.644531 -20.4375 22.84375 -13.21875 C 25.25 -14.019531 29.457031 -16.425781 35.46875 -20.4375 C 41.476562 -24.445312 47.988281 -29.15625 55 -34.5625 C 62.007812 -39.96875 68.71875 -45.175781 75.125 -50.1875 C 81.539062 -55.195312 86.351562 -59.101562 89.5625 -61.90625 L 133.4375 -103.390625 C 136.25 -105.390625 139.054688 -106.390625 141.859375 -106.390625 C 146.265625 -106.390625 148.46875 -103.988281 148.46875 -99.1875 C 148.46875 -95.175781 145.5625 -90.0625 139.75 -83.84375 C 133.9375 -77.632812 127.625 -71.523438 120.8125 -65.515625 C 114 -59.503906 108.992188 -55.097656 105.796875 -52.296875 L 24.640625 10.8125 C 47.890625 16.03125 64.820312 26.953125 75.4375 43.578125 C 86.050781 60.210938 91.359375 79.445312 91.359375 101.28125 C 91.359375 123.125 87.15625 145.066406 78.75 167.109375 C 75.9375 175.523438 71.425781 184.238281 65.21875 193.25 C 59.007812 202.269531 50.492188 206.78125 39.671875 206.78125 C 30.453125 206.78125 22.835938 202.367188 16.828125 193.546875 C 10.816406 184.734375 5.90625 173.613281 2.09375 160.1875 C -1.707031 146.769531 -4.609375 132.945312 -6.609375 118.71875 C -8.617188 104.488281 -10.125 91.460938 -11.125 79.640625 C -12.125 67.816406 -12.820312 59.503906 -13.21875 54.703125 C -13.625 51.097656 -13.425781 47.289062 -12.625 43.28125 C -11.820312 39.269531 -11.421875 34.660156 -11.421875 29.453125 C -18.234375 31.054688 -25.945312 34.257812 -34.5625 39.0625 C -43.175781 43.875 -53.296875 46.28125 -64.921875 46.28125 C -72.128906 46.28125 -76.035156 44.878906 -76.640625 42.078125 C -77.242188 39.273438 -77.546875 35.867188 -77.546875 31.859375 Z M -77.546875 31.859375 "/></g></g></g><g fill="#152705" fill-opacity="1"><g transform="translate(1195.488469, 589.61754)"><g><path d="M 17.4375 241.03125 C 29.050781 241.03125 39.46875 237.625 48.6875 230.8125 C 57.90625 224 66.019531 215.785156 73.03125 206.171875 C 80.039062 196.554688 85.953125 187.539062 90.765625 179.125 C 95.171875 170.707031 100.078125 158.6875 105.484375 143.0625 C 110.898438 127.4375 116.007812 110.503906 120.8125 92.265625 C 125.625 74.035156 129.734375 56.804688 133.140625 40.578125 C 136.546875 24.347656 138.648438 11.625 139.453125 2.40625 C 134.640625 5.207031 130.234375 8.210938 126.234375 11.421875 L 67.328125 63.71875 C 65.722656 65.320312 64.117188 67.222656 62.515625 69.421875 C 60.910156 71.628906 58.90625 73.734375 56.5 75.734375 C 46.882812 85.359375 38.269531 94.976562 30.65625 104.59375 C 23.039062 114.207031 15.425781 124.828125 7.8125 136.453125 C 4.207031 141.660156 0.398438 148.269531 -3.609375 156.28125 C -7.617188 164.300781 -10.925781 172.816406 -13.53125 181.828125 C -16.132812 190.847656 -17.132812 199.765625 -16.53125 208.578125 C -15.925781 217.390625 -12.617188 225.003906 -6.609375 231.421875 C -1.398438 237.828125 6.613281 241.03125 17.4375 241.03125 Z M 31.25 -52.890625 C 37.257812 -56.097656 44.269531 -62.410156 52.28125 -71.828125 C 60.300781 -81.242188 68.71875 -92.460938 77.53125 -105.484375 C 86.351562 -118.515625 94.972656 -131.941406 103.390625 -145.765625 C 111.804688 -159.585938 119.519531 -172.410156 126.53125 -184.234375 C 133.539062 -196.054688 139.050781 -205.570312 143.0625 -212.78125 C 147.875 -220.800781 151.179688 -226.113281 152.984375 -228.71875 C 154.785156 -231.320312 158.890625 -232.625 165.296875 -232.625 C 168.503906 -232.625 170.910156 -230.316406 172.515625 -225.703125 C 174.117188 -221.097656 175.320312 -215.488281 176.125 -208.875 C 176.925781 -202.269531 177.328125 -195.957031 177.328125 -189.9375 C 177.328125 -183.925781 177.328125 -179.320312 177.328125 -176.125 L 177.328125 -129.84375 C 177.328125 -119.820312 176.820312 -109.195312 175.8125 -97.96875 C 174.8125 -86.75 173.910156 -76.332031 173.109375 -66.71875 C 172.304688 -57.101562 171.90625 -49.488281 171.90625 -43.875 L 257.875 -93.765625 C 259.875 -94.972656 264.078125 -97.78125 270.484375 -102.1875 C 276.898438 -106.59375 282.3125 -108.796875 286.71875 -108.796875 C 290.320312 -108.796875 292.125 -106.59375 292.125 -102.1875 C 292.125 -99.382812 288.816406 -95.578125 282.203125 -90.765625 C 275.597656 -85.953125 268.585938 -81.539062 261.171875 -77.53125 C 253.765625 -73.53125 248.859375 -70.726562 246.453125 -69.125 C 234.023438 -62.3125 221.695312 -55 209.46875 -47.1875 C 197.25 -39.375 185.332031 -31.457031 173.71875 -23.4375 C 170.914062 -21.4375 169.410156 -19.734375 169.203125 -18.328125 C 169.003906 -16.929688 168.503906 -14.03125 167.703125 -9.625 C 164.898438 10.019531 160.894531 32.265625 155.6875 57.109375 C 150.476562 81.953125 144.066406 106.191406 136.453125 129.828125 C 128.835938 153.472656 120.019531 173.3125 110 189.34375 C 104.382812 200.164062 96.867188 210.882812 87.453125 221.5 C 78.035156 232.125 67.515625 240.941406 55.890625 247.953125 C 44.273438 254.960938 31.859375 258.46875 18.640625 258.46875 C 3.804688 258.46875 -8.613281 253.457031 -18.625 243.4375 C -28.644531 233.425781 -33.65625 219.398438 -33.65625 201.359375 C -33.65625 188.140625 -30.25 173.914062 -23.4375 158.6875 C -16.625 143.457031 -7.507812 127.925781 3.90625 112.09375 C 15.320312 96.269531 27.640625 81.144531 40.859375 66.71875 C 54.085938 52.289062 67.3125 39.164062 80.53125 27.34375 C 93.757812 15.53125 105.585938 5.816406 116.015625 -1.796875 C 118.015625 -3.804688 119.816406 -5.3125 121.421875 -6.3125 C 123.023438 -7.3125 125.03125 -8.613281 127.4375 -10.21875 C 133.039062 -15.03125 137.144531 -18.335938 139.75 -20.140625 C 142.351562 -21.941406 143.859375 -25.445312 144.265625 -30.65625 C 146.671875 -51.09375 148.875 -69.925781 150.875 -87.15625 C 152.875 -104.382812 154.375 -122.113281 155.375 -140.34375 C 156.382812 -158.582031 156.890625 -179.125 156.890625 -201.96875 C 155.679688 -201.164062 152.375 -196.457031 146.96875 -187.84375 C 141.5625 -179.226562 135.453125 -169.207031 128.640625 -157.78125 C 121.828125 -146.363281 115.410156 -135.742188 109.390625 -125.921875 C 103.378906 -116.109375 99.175781 -109.398438 96.78125 -105.796875 C 90.769531 -96.171875 83.453125 -84.847656 74.828125 -71.828125 C 66.210938 -58.804688 57.898438 -48.488281 49.890625 -40.875 C 42.273438 -34.0625 35.265625 -30.65625 28.859375 -30.65625 C 22.441406 -30.65625 17.03125 -33.757812 12.625 -39.96875 C 8.21875 -46.1875 6.015625 -54.503906 6.015625 -64.921875 C 6.015625 -71.328125 6.8125 -79.335938 8.40625 -88.953125 C 10.007812 -98.578125 12.414062 -108.097656 15.625 -117.515625 C 18.832031 -126.929688 22.539062 -134.84375 26.75 -141.25 C 30.957031 -147.664062 35.460938 -150.875 40.265625 -150.875 C 47.078125 -150.875 50.484375 -148.46875 50.484375 -143.65625 C 50.484375 -138.851562 48.878906 -132.140625 45.671875 -123.515625 C 42.472656 -114.898438 39.269531 -104.582031 36.0625 -92.5625 C 32.851562 -80.539062 31.25 -67.316406 31.25 -52.890625 Z M 31.25 -52.890625 "/></g></g></g></g></g></g><g fill="#152705" fill-opacity="1"><g transform="translate(1258.826722, 333.008532)"><g/></g></g><g fill="#152705" fill-opacity="1"><g transform="translate(1277.311796, 333.008532)"><g><path d="M 27.546875 -2.34375 C 26.535156 -1.675781 25.253906 -1.0625 23.703125 -0.5 C 22.160156 0.0625 20.476562 0.34375 18.65625 0.34375 C 15.445312 0.34375 12.617188 -0.363281 10.171875 -1.78125 C 7.722656 -3.195312 5.84375 -5.101562 4.53125 -7.5 C 3.21875 -9.90625 2.5625 -12.550781 2.5625 -15.4375 C 2.5625 -18.53125 3.222656 -21.3125 4.546875 -23.78125 C 5.878906 -26.257812 7.722656 -28.195312 10.078125 -29.59375 C 12.441406 -31 15.113281 -31.703125 18.09375 -31.703125 C 19.851562 -31.703125 21.5 -31.46875 23.03125 -31 C 24.5625 -30.539062 25.9375 -29.9375 27.15625 -29.1875 L 25.46875 -25.25 C 23.0625 -26.863281 20.644531 -27.671875 18.21875 -27.671875 C 16.195312 -27.671875 14.320312 -27.132812 12.59375 -26.0625 C 10.875 -25 9.5 -23.546875 8.46875 -21.703125 C 7.445312 -19.867188 6.9375 -17.851562 6.9375 -15.65625 C 6.9375 -13.40625 7.40625 -11.367188 8.34375 -9.546875 C 9.289062 -7.722656 10.632812 -6.296875 12.375 -5.265625 C 14.125 -4.242188 16.144531 -3.734375 18.4375 -3.734375 C 21.238281 -3.734375 23.679688 -4.523438 25.765625 -6.109375 Z M 27.546875 -2.34375 "/></g></g></g><g fill="#152705" fill-opacity="1"><g transform="translate(1312.190077, 333.008532)"><g><path d="M 21.78125 0 L 14.40625 -11.578125 C 14.164062 -11.546875 13.816406 -11.53125 13.359375 -11.53125 L 8.71875 -11.53125 L 8.71875 0 L 4.515625 0 L 4.515625 -31.359375 L 12.875 -31.359375 C 15.019531 -31.359375 16.929688 -30.984375 18.609375 -30.234375 C 20.285156 -29.484375 21.597656 -28.375 22.546875 -26.90625 C 23.503906 -25.445312 23.984375 -23.691406 23.984375 -21.640625 C 23.984375 -19.703125 23.554688 -17.921875 22.703125 -16.296875 C 21.847656 -14.679688 20.539062 -13.457031 18.78125 -12.625 L 26.671875 0 Z M 13.265625 -15.609375 C 15.523438 -15.609375 17.15625 -16.203125 18.15625 -17.390625 C 19.15625 -18.578125 19.65625 -19.9375 19.65625 -21.46875 C 19.65625 -22.394531 19.441406 -23.304688 19.015625 -24.203125 C 18.597656 -25.097656 17.929688 -25.84375 17.015625 -26.4375 C 16.109375 -27.03125 14.960938 -27.328125 13.578125 -27.328125 L 8.71875 -27.328125 L 8.71875 -15.609375 Z M 13.265625 -15.609375 "/></g></g></g><g fill="#152705" fill-opacity="1"><g transform="translate(1345.593429, 333.008532)"><g><path d="M 24.890625 -31.359375 L 24.890625 -27.328125 L 8.71875 -27.328125 L 8.71875 -17.78125 L 23.15625 -17.78125 L 23.15625 -13.75 L 8.71875 -13.75 L 8.71875 -4.078125 L 25.5 -4.078125 L 25.5 0 L 4.515625 0 L 4.515625 -31.359375 Z M 24.890625 -31.359375 "/></g></g></g><g fill="#152705" fill-opacity="1"><g transform="translate(1378.693109, 333.008532)"><g><path d="M 20.953125 -8.234375 L 8.890625 -8.234375 L 5.546875 0 L 1.390625 0 L 15.09375 -32.65625 L 15.359375 -32.65625 L 29.0625 0 L 24.203125 0 Z M 19.515625 -11.890625 L 15.046875 -23.328125 L 10.40625 -11.890625 Z M 19.515625 -11.890625 "/></g></g></g><g fill="#152705" fill-opacity="1"><g transform="translate(1413.875045, 333.008532)"><g><path d="M 23.03125 -31.359375 L 23.03125 -27.328125 L 14.625 -27.328125 L 14.625 0 L 10.40625 0 L 10.40625 -27.328125 L 2.21875 -27.328125 L 2.21875 -31.359375 Z M 23.03125 -31.359375 "/></g></g></g><g fill="#152705" fill-opacity="1"><g transform="translate(1443.894743, 333.008532)"><g><path d="M 8.71875 -31.359375 L 8.71875 0 L 4.515625 0 L 4.515625 -31.359375 Z M 8.71875 -31.359375 "/></g></g></g><g fill="#152705" fill-opacity="1"><g transform="translate(1461.898145, 333.008532)"><g><path d="M 29.453125 -31.359375 L 15.609375 1.46875 L 1.78125 -31.359375 L 6.765625 -31.359375 L 15.78125 -8.765625 L 24.5 -31.359375 Z M 29.453125 -31.359375 "/></g></g></g><g fill="#152705" fill-opacity="1"><g transform="translate(1497.86092, 333.008532)"><g><path d="M 24.890625 -31.359375 L 24.890625 -27.328125 L 8.71875 -27.328125 L 8.71875 -17.78125 L 23.15625 -17.78125 L 23.15625 -13.75 L 8.71875 -13.75 L 8.71875 -4.078125 L 25.5 -4.078125 L 25.5 0 L 4.515625 0 L 4.515625 -31.359375 Z M 24.890625 -31.359375 "/></g></g></g><g fill="#152705" fill-opacity="1"><g transform="translate(1530.9606, 333.008532)"><g/></g></g><g fill="#152705" fill-opacity="1"><g transform="translate(1549.441188, 333.008532)"><g><path d="M 8.71875 -31.359375 L 8.71875 -4.078125 L 24.6875 -4.078125 L 24.6875 0 L 4.515625 0 L 4.515625 -31.359375 Z M 8.71875 -31.359375 "/></g></g></g><g fill="#152705" fill-opacity="1"><g transform="translate(1581.196095, 333.008532)"><g><path d="M 20.953125 -8.234375 L 8.890625 -8.234375 L 5.546875 0 L 1.390625 0 L 15.09375 -32.65625 L 15.359375 -32.65625 L 29.0625 0 L 24.203125 0 Z M 19.515625 -11.890625 L 15.046875 -23.328125 L 10.40625 -11.890625 Z M 19.515625 -11.890625 "/></g></g></g><g fill="#152705" fill-opacity="1"><g transform="translate(1616.378014, 333.008532)"><g><path d="M 18.484375 -16.265625 C 20.273438 -15.566406 21.691406 -14.570312 22.734375 -13.28125 C 23.773438 -12 24.296875 -10.507812 24.296875 -8.8125 C 24.296875 -6.8125 23.8125 -5.148438 22.84375 -3.828125 C 21.875 -2.515625 20.597656 -1.546875 19.015625 -0.921875 C 17.441406 -0.304688 15.71875 0 13.84375 0 L 4.515625 0 L 4.515625 -31.359375 L 12.625 -31.359375 C 15.832031 -31.359375 18.316406 -30.695312 20.078125 -29.375 C 21.847656 -28.0625 22.734375 -26.09375 22.734375 -23.46875 C 22.734375 -21.820312 22.363281 -20.382812 21.625 -19.15625 C 20.882812 -17.925781 19.835938 -16.960938 18.484375 -16.265625 Z M 8.71875 -17.65625 L 13.484375 -17.65625 C 15.109375 -17.65625 16.332031 -18.113281 17.15625 -19.03125 C 17.976562 -19.957031 18.390625 -21.144531 18.390625 -22.59375 C 18.390625 -24.1875 17.894531 -25.375 16.90625 -26.15625 C 15.925781 -26.9375 14.554688 -27.328125 12.796875 -27.328125 L 8.71875 -27.328125 Z M 13.65625 -3.90625 C 15.476562 -3.90625 16.984375 -4.316406 18.171875 -5.140625 C 19.359375 -5.960938 19.953125 -7.171875 19.953125 -8.765625 C 19.953125 -10.410156 19.304688 -11.625 18.015625 -12.40625 C 16.734375 -13.1875 15.179688 -13.578125 13.359375 -13.578125 L 8.71875 -13.578125 L 8.71875 -3.90625 Z M 13.65625 -3.90625 "/></g></g></g><path fill="#f3953c" d="M 177.902344 421.769531 L 16.75 421.769531 L 16.75 256.75 L 177.855469 256.75 C 161.546875 280.164062 151.980469 308.605469 151.980469 339.253906 C 151.980469 369.273438 161.371094 397.957031 177.902344 421.769531 Z M 177.902344 421.769531 " fill-opacity="1" fill-rule="nonzero"/><path fill="#152705" d="M 142.480469 137.808594 C 142.480469 141.40625 138.945312 144.339844 134.621094 144.339844 L 68.808594 144.339844 C 64.484375 144.339844 60.953125 141.40625 60.953125 137.808594 L 60.953125 125.582031 C 60.953125 121.996094 64.484375 119.0625 68.808594 119.0625 L 134.625 119.0625 C 138.949219 119.0625 142.484375 121.996094 142.484375 125.582031 L 142.484375 137.808594 Z M 142.480469 137.808594 " fill-opacity="1" fill-rule="nonzero"/><path fill="#152705" d="M 103.84375 223.671875 C 103.84375 225.835938 102.074219 227.605469 99.910156 227.605469 L 44.90625 227.605469 C 42.746094 227.605469 40.980469 225.839844 40.980469 223.671875 L 40.980469 200.097656 C 40.980469 197.9375 42.746094 196.167969 44.90625 196.167969 L 99.917969 196.167969 C 102.074219 196.167969 103.847656 197.9375 103.847656 200.097656 L 103.847656 223.671875 Z M 103.84375 223.671875 " fill-opacity="1" fill-rule="nonzero"/><g clip-path="url(#6d37511af5)"><path fill="#152705" d="M 552.035156 101.570312 L 502.757812 156.875 L 390.089844 156.875 L 380.117188 122.308594 C 377.941406 114.761719 370.378906 109.070312 362.53125 109.070312 L 230.894531 109.070312 C 223.042969 109.070312 215.484375 114.761719 213.304688 122.296875 L 203.332031 156.875 L 40.320312 156.875 C 18.652344 156.875 1.023438 174.496094 1.023438 196.164062 L 1.023438 482.355469 C 1.023438 504.019531 18.652344 521.644531 40.320312 521.644531 L 177.730469 521.644531 L 122.257812 583.902344 L 137.582031 597.558594 L 567.359375 115.226562 Z M 263.386719 417.628906 C 262.660156 417.261719 261.917969 416.910156 261.203125 416.519531 C 219.363281 394.019531 203.6875 341.875 226.183594 300.035156 C 243.894531 267.097656 279.976562 250.394531 314.945312 255.734375 C 283.902344 256.777344 254.230469 273.800781 238.457031 303.117188 C 217.128906 342.777344 228.550781 391.28125 263.386719 417.628906 Z M 388.855469 284.707031 C 370.199219 253.265625 335.914062 232.179688 296.703125 232.1875 C 237.570312 232.1875 189.632812 280.132812 189.632812 339.257812 C 189.632812 382.859375 215.703125 420.371094 253.089844 437.082031 L 237.90625 454.121094 C 195.089844 432.144531 167.707031 387.644531 167.707031 339.257812 C 167.707031 268.125 225.574219 210.25 296.710938 210.25 C 340.175781 210.25 380.007812 231.636719 404.042969 267.671875 Z M 296.703125 194.527344 C 247.539062 194.527344 204.027344 219.171875 177.855469 256.75 C 161.546875 280.164062 151.980469 308.605469 151.980469 339.253906 C 151.980469 369.269531 161.371094 397.957031 177.902344 421.769531 C 190.492188 439.941406 207.246094 455.265625 227.136719 466.195312 L 191.738281 505.921875 L 40.320312 505.921875 C 27.324219 505.921875 16.75 495.347656 16.75 482.355469 L 16.75 196.164062 C 16.75 183.164062 27.324219 172.59375 40.320312 172.59375 L 215.152344 172.59375 L 228.402344 126.664062 C 228.628906 125.875 230.070312 124.789062 230.894531 124.789062 L 362.527344 124.789062 C 363.347656 124.789062 364.785156 125.875 365.007812 126.664062 L 378.265625 172.59375 L 488.753906 172.59375 L 414.808594 255.582031 C 387.640625 217.203125 344.097656 194.527344 296.703125 194.527344 Z M 296.703125 194.527344 " fill-opacity="1" fill-rule="nonzero"/></g></g></g></svg>